# xmcd
#
# Track frame offsets:
#	187
#	30712
#	53477
#	81355
#	105790
#	125635
#	154520
#
# Disc length: 2240 seconds
#
# Revision: 0
# Processed by: cddbd v1.5.2PL0 Copyright (c) Steve Scherf et al.
# Submitted via: audiograbber 1.83.01
#
DISCID=4808be07
DTITLE=Crusaders - Standing Tall
DYEAR=1981
DGENRE=Jazz
TTITLE0=Standing Tall
TTITLE1=I'm so Glad I'm Standing Here Today
TTITLE2=Sunshine in Your Eyes
TTITLE3=This Old World's Too Funky for Me
TTITLE4=Luckenbach Texas (Back to the Basics of Love)
TTITLE5=Longest Night
TTITLE6=I'm so Glad I'm Standing Here Today (reprise)
EXTD=
EXTT0=
EXTT1=
EXTT2=
EXTT3=
EXTT4=
EXTT5=
EXTT6=
PLAYORDER=
